HIERARCHY
ROOT Crab_Bone_002
{
	OFFSET 0.000001 1.809483 1.070690
	CHANNELS 6 Xposition Yposition Zposition Xrotation Yrotation Zrotation
	JOINT Crab_Bone_003
	{
		OFFSET -0.001212 -3.444643 1.330027
		CHANNELS 3 Xrotation Yrotation Zrotation
		JOINT Crab_Bone_004
		{
			OFFSET -0.000258 -0.734549 0.283620
			CHANNELS 3 Xrotation Yrotation Zrotation
			JOINT Crab_Bone_005
			{
				OFFSET -2.212137 2.996329 -3.161722
				CHANNELS 3 Xrotation Yrotation Zrotation
				JOINT Crab_Bone_006
				{
					OFFSET -2.363831 -0.999774 0.737129
					CHANNELS 3 Xrotation Yrotation Zrotation
					JOINT Crab_Bone_007
					{
						OFFSET 0.679981 -1.781121 0.391521
						CHANNELS 3 Xrotation Yrotation Zrotation
						JOINT Crab_Bone_012
						{
							OFFSET 0.167619 -0.705615 0.156840
							CHANNELS 3 Xrotation Yrotation Zrotation
							JOINT Crab_Bone_013
							{
								OFFSET 1.027711 -2.075420 1.136799
								CHANNELS 3 Xrotation Yrotation Zrotation
								End Site
								{
									OFFSET 0.059793 0.725938 2.474936
								}
							}
						}
						JOINT Crab_Bone_014
						{
							OFFSET 0.169967 -0.716239 0.177733
							CHANNELS 3 Xrotation Yrotation Zrotation
							JOINT Crab_Bone_015
							{
								OFFSET 1.177098 -2.213120 -0.871869
								CHANNELS 3 Xrotation Yrotation Zrotation
								End Site
								{
									OFFSET -0.140401 -0.651721 2.568885
								}
							}
						}
					}
				}
			}
		}
		JOINT Crab_Bone_008
		{
			OFFSET -0.000258 -0.734549 0.283620
			CHANNELS 3 Xrotation Yrotation Zrotation
			JOINT Crab_Bone_009
			{
				OFFSET 2.536297 2.452007 -2.009468
				CHANNELS 3 Xrotation Yrotation Zrotation
				JOINT Crab_Bone_010
				{
					OFFSET 1.536116 -0.822250 0.380907
					CHANNELS 3 Xrotation Yrotation Zrotation
					JOINT Crab_Bone_011
					{
						OFFSET -0.216882 -1.545392 0.401011
						CHANNELS 3 Xrotation Yrotation Zrotation
						JOINT Crab_Bone_016
						{
							OFFSET -0.105369 -0.640233 0.098495
							CHANNELS 3 Xrotation Yrotation Zrotation
							JOINT Crab_Bone_017
							{
								OFFSET -0.877063 -1.746863 0.622338
								CHANNELS 3 Xrotation Yrotation Zrotation
								End Site
								{
									OFFSET 0.058713 0.817211 1.880637
								}
							}
						}
						JOINT Crab_Bone_018
						{
							OFFSET -0.117790 -0.696131 0.111856
							CHANNELS 3 Xrotation Yrotation Zrotation
							JOINT Crab_Bone_019
							{
								OFFSET -0.774615 -2.143309 -0.762011
								CHANNELS 3 Xrotation Yrotation Zrotation
								End Site
								{
									OFFSET 0.098373 -1.177132 2.092640
								}
							}
						}
					}
				}
			}
		}
	}
	JOINT Crab_Bone_020
	{
		OFFSET -1.116273 -0.154590 -0.374501
		CHANNELS 3 Xrotation Yrotation Zrotation
		JOINT Crab_Bone_021
		{
			OFFSET -3.118662 1.611093 1.513430
			CHANNELS 3 Xrotation Yrotation Zrotation
			JOINT Crab_Bone_022
			{
				OFFSET -1.588351 2.658805 -1.742729
				CHANNELS 3 Xrotation Yrotation Zrotation
				End Site
				{
					OFFSET -3.122031 -1.424496 0.923547
				}
			}
		}
	}
	JOINT Crab_Bone_023
	{
		OFFSET -1.485358 -0.679445 -0.384127
		CHANNELS 3 Xrotation Yrotation Zrotation
		JOINT Crab_Bone_024
		{
			OFFSET -4.354937 1.041430 2.735311
			CHANNELS 3 Xrotation Yrotation Zrotation
			JOINT Crab_Bone_025
			{
				OFFSET -3.146346 1.140532 -2.766851
				CHANNELS 3 Xrotation Yrotation Zrotation
				End Site
				{
					OFFSET -1.594861 -4.033993 0.197688
				}
			}
		}
	}
	JOINT Crab_Bone_026
	{
		OFFSET -1.641655 -1.332070 -0.435368
		CHANNELS 3 Xrotation Yrotation Zrotation
		JOINT Crab_Bone_027
		{
			OFFSET -4.159019 0.186248 1.795406
			CHANNELS 3 Xrotation Yrotation Zrotation
			JOINT Crab_Bone_028
			{
				OFFSET -3.475782 0.547989 -1.456533
				CHANNELS 3 Xrotation Yrotation Zrotation
				End Site
				{
					OFFSET -0.634418 -3.753667 0.101702
				}
			}
		}
	}
	JOINT Crab_Bone_029
	{
		OFFSET -1.691511 -1.877323 -0.077977
		CHANNELS 3 Xrotation Yrotation Zrotation
		JOINT Crab_Bone_030
		{
			OFFSET -4.567539 -1.546834 1.375860
			CHANNELS 3 Xrotation Yrotation Zrotation
			JOINT Crab_Bone_031
			{
				OFFSET -2.285981 -1.723023 -1.671352
				CHANNELS 3 Xrotation Yrotation Zrotation
				End Site
				{
					OFFSET 2.513823 -2.117836 -0.428249
				}
			}
		}
	}
	JOINT Crab_Bone_020_Bis
	{
		OFFSET 1.052121 -0.155333 -0.407179
		CHANNELS 3 Xrotation Yrotation Zrotation
		JOINT Crab_Bone_021_Bis
		{
			OFFSET 3.269777 1.689566 1.700762
			CHANNELS 3 Xrotation Yrotation Zrotation
			JOINT Crab_Bone_022_Bis
			{
				OFFSET 1.433824 3.291166 -1.667421
				CHANNELS 3 Xrotation Yrotation Zrotation
				End Site
				{
					OFFSET -3.624812 1.364690 -0.816260
				}
			}
		}
	}
	JOINT Crab_Bone_023_Bis
	{
		OFFSET 1.420852 -0.680440 -0.618396
		CHANNELS 3 Xrotation Yrotation Zrotation
		JOINT Crab_Bone_024_Bis
		{
			OFFSET 3.158329 0.755220 2.314403
			CHANNELS 3 Xrotation Yrotation Zrotation
			JOINT Crab_Bone_025_Bis
			{
				OFFSET 3.724785 1.320794 -2.253904
				CHANNELS 3 Xrotation Yrotation Zrotation
				End Site
				{
					OFFSET -1.615193 4.246540 -0.238007
				}
			}
		}
	}
	JOINT Crab_Bone_026_Bis
	{
		OFFSET 1.576704 -1.333172 -0.624875
		CHANNELS 3 Xrotation Yrotation Zrotation
		JOINT Crab_Bone_027_Bis
		{
			OFFSET 3.858073 0.173228 2.214125
			CHANNELS 3 Xrotation Yrotation Zrotation
			JOINT Crab_Bone_028_Bis
			{
				OFFSET 3.076779 0.421557 -1.941671
				CHANNELS 3 Xrotation Yrotation Zrotation
				End Site
				{
					OFFSET -0.558715 3.617706 -0.120044
				}
			}
		}
	}
	JOINT Crab_Bone_029_Bis
	{
		OFFSET 1.626128 -2.007151 -0.390477
		CHANNELS 3 Xrotation Yrotation Zrotation
		JOINT Crab_Bone_030_Bis
		{
			OFFSET 3.013092 -0.711103 1.404963
			CHANNELS 3 Xrotation Yrotation Zrotation
			JOINT Crab_Bone_031_Bis
			{
				OFFSET 2.645858 -2.135076 -1.922209
				CHANNELS 3 Xrotation Yrotation Zrotation
				End Site
				{
					OFFSET 2.656470 2.760786 0.758435
				}
			}
		}
	}
}
MOTION
Frames: 9
Frame Time: 0.040000
0.000000 1.809483 1.070688 -5.486273 -0.758476 -2.268389 -0.000003 -0.000000 0.000000 2.443573 8.154685 -5.592900 -0.363713 2.796702 2.873254 -6.621343 -7.976014 3.686233 0.000005 0.000001 0.000002 4.945115 2.468209 -0.070491 0.000008 -0.000001 0.000004 -7.092768 -3.775541 -0.201590 -0.000001 -0.000000 0.000005 -1.425343 -0.192043 -6.668453 -0.442799 -2.153499 -3.134908 -3.989196 4.403219 -2.095916 0.000004 -0.000004 0.000004 3.084195 -1.514093 0.119004 0.000001 0.000004 0.000014 -2.678698 0.941376 0.086071 0.000007 0.000005 0.000010 11.836906 16.683526 10.961298 -35.222128 -23.407424 -31.597784 -0.000000 0.000010 0.000015 -0.899591 -3.281629 2.805015 2.854660 9.987481 0.568674 -0.000007 -0.000009 0.000002 -0.673442 28.563103 9.454096 -18.600651 -60.169821 -19.913890 0.000000 0.000000 -0.000002 3.006383 -6.338480 -2.708388 -3.762008 8.812941 -3.217034 -0.000009 0.000017 -0.000000 1.682947 -0.891591 -8.990177 0.352265 -0.332355 -0.349099 -0.000017 0.000008 0.000009 7.818874 -22.185887 2.001817 -18.595241 43.060176 11.427075 0.000009 -0.000020 -0.000006 0.047446 -1.923026 -1.788568 -1.012836 10.451464 0.894398 -0.000001 0.000011 0.000006 2.702813 5.925128 3.583705 -0.711900 -1.577098 0.742933 0.000007 -0.000003 0.000003 
0.000000 1.809483 1.070688 -5.422118 -0.760157 -2.269185 -0.000001 0.000000 0.000000 2.458005 8.214579 -5.619592 -0.363707 2.796698 2.873254 -6.621344 -7.976017 3.686227 0.000001 0.000000 0.000002 4.945122 2.468211 -0.070488 0.000012 -0.000001 0.000004 -7.092766 -3.775540 -0.201590 0.000002 -0.000001 0.000005 -1.411826 -0.266529 -6.640130 -0.447777 -2.174726 -3.166059 -3.989195 4.403221 -2.095916 0.000005 -0.000003 -0.000001 3.084195 -1.514094 0.119002 0.000001 0.000007 0.000017 -2.678699 0.941374 0.086076 0.000008 0.000003 0.000013 15.908496 22.360559 11.512298 -28.883770 -21.280455 -25.824839 0.000003 0.000012 0.000013 -0.297735 -0.736623 2.827833 1.437751 4.763723 0.277709 -0.000007 -0.000009 -0.000000 -0.180652 28.539534 9.466471 -11.773409 -49.887668 -11.965791 0.000003 0.000002 -0.000001 1.955744 -3.610030 -4.050499 -0.998668 2.149982 -0.829899 -0.000009 0.000012 -0.000001 3.179085 -2.932670 -9.839407 -3.734309 3.295271 3.720495 -0.000015 0.000009 0.000013 8.822029 -26.784682 1.462220 -13.243365 35.147870 7.872479 0.000006 -0.000015 -0.000005 0.192027 -4.443285 -1.932958 -1.598154 16.112886 1.523096 -0.000001 0.000009 0.000006 -1.298034 -3.405044 7.066554 2.507940 5.146960 -2.605579 0.000009 0.000002 0.000000 
0.000000 1.809483 1.070689 -5.266717 -0.764251 -2.271100 -0.000001 0.000000 0.000000 2.493038 8.359892 -5.684332 -0.363707 2.796702 2.873254 -6.621342 -7.976014 3.686230 0.000002 0.000001 0.000002 4.945120 2.468211 -0.070487 0.000008 -0.000002 0.000000 -7.092762 -3.775542 -0.201589 0.000002 0.000001 0.000002 -1.379274 -0.447323 -6.571261 -0.459724 -2.225433 -3.240596 -3.989188 4.403220 -2.095917 0.000002 -0.000004 -0.000000 3.084195 -1.514095 0.119001 0.000000 0.000005 0.000017 -2.678697 0.941375 0.086075 0.000010 0.000004 0.000009 18.796346 26.738831 11.434129 -15.834078 -14.288552 -13.820728 -0.000003 0.000007 0.000015 1.049040 4.744005 2.689843 -2.064399 -6.321167 -0.481187 -0.000005 -0.000006 0.000003 0.682804 23.736634 8.657570 -3.202329 -28.189874 -5.767889 0.000002 0.000004 -0.000001 0.195244 1.374907 -6.112681 5.018087 -9.957021 4.557645 -0.000011 0.000017 -0.000003 5.520454 -6.052090 -10.634791 -10.625315 8.285515 10.561154 -0.000011 0.000006 0.000006 8.273867 -26.841585 0.314285 -5.803980 17.722855 2.391841 0.000005 -0.000017 -0.000005 0.421827 -8.550225 -2.148867 -2.706073 25.316310 2.784664 -0.000001 0.000011 0.000004 -5.689790 -15.221715 10.565695 5.067337 9.766517 -5.213833 0.000009 -0.000001 0.000006 
0.000000 1.809483 1.070689 -5.058837 -0.769722 -2.273613 -0.000003 0.000000 0.000000 2.540335 8.554546 -5.771059 -0.363712 2.796701 2.873252 -6.621342 -7.976015 3.686229 0.000002 0.000000 0.000009 4.945123 2.468212 -0.070490 0.000007 -0.000001 -0.000002 -7.092768 -3.775541 -0.201590 0.000003 -0.000000 0.000003 -1.334183 -0.689859 -6.479151 -0.475469 -2.291705 -3.338077 -3.989193 4.403218 -2.095911 0.000005 -0.000003 0.000001 3.084191 -1.514096 0.118999 0.000000 0.000003 0.000011 -2.678696 0.941375 0.086077 0.000004 0.000002 0.000014 16.544248 23.625351 12.039290 -7.963206 -7.999564 -6.710005 0.000001 0.000009 0.000014 2.761907 10.988413 2.117812 -6.700982 -18.574131 -1.954749 -0.000006 -0.000008 -0.000002 0.995921 16.058801 7.690852 -1.547234 -11.343821 -1.428526 0.000002 0.000000 -0.000003 -1.393597 6.447022 -7.957150 13.172195 -22.065261 12.120595 -0.000012 0.000016 -0.000004 8.165533 -9.293954 -10.652891 -18.803104 12.658192 18.675467 -0.000012 0.000006 0.000006 6.214584 -20.769395 -0.486691 -1.787881 4.386102 -0.029171 0.000006 -0.000015 -0.000004 0.680999 -13.084914 -2.348114 -4.745809 35.635091 4.287867 -0.000001 0.000006 0.000006 -6.386935 -17.340529 11.482319 4.889419 9.497644 -5.063037 0.000010 -0.000001 0.000007 
0.000000 1.809483 1.070688 -4.837669 -0.775544 -2.276251 0.000000 -0.000000 0.000000 2.587461 8.762831 -5.863739 -0.363713 2.796698 2.873256 -6.621340 -7.976017 3.686230 0.000004 0.000001 0.000007 4.945119 2.468212 -0.070490 0.000009 -0.000000 0.000005 -7.092763 -3.775541 -0.201590 0.000001 0.000001 0.000004 -1.276795 -0.948228 -6.382900 -0.491852 -2.360253 -3.438936 -3.989194 4.403215 -2.095914 0.000005 -0.000003 -0.000001 3.084193 -1.514095 0.118999 0.000006 0.000005 0.000014 -2.678701 0.941374 0.086076 0.000005 0.000003 0.000009 11.615730 16.019884 13.435628 -5.003337 -5.319144 -4.257737 -0.000006 0.000010 0.000013 4.662305 16.641963 1.026904 -10.514714 -31.539392 -6.365601 -0.000005 -0.000008 -0.000000 0.765841 7.990865 6.986043 -0.334567 -3.057013 -0.403491 0.000002 0.000002 -0.000002 -2.557713 10.632399 -9.296207 22.791728 -31.784818 21.215201 -0.000010 0.000015 -0.000000 10.859160 -11.961866 -9.655634 -26.848756 15.575184 26.665625 -0.000011 0.000006 0.000006 3.920611 -13.232973 -0.818720 -0.126920 0.386324 0.023589 0.000007 -0.000017 -0.000005 0.929231 -17.231058 -2.480940 -7.284513 45.776973 6.661624 -0.000001 0.000009 0.000005 -4.367346 -11.486823 11.928635 3.294218 6.663437 -3.439510 0.000008 -0.000003 0.000010 
0.000000 1.809483 1.070688 -4.642873 -0.780674 -2.278548 -0.000001 -0.000000 0.000000 2.624817 8.947599 -5.945780 -0.363709 2.796698 2.873254 -6.621340 -7.976016 3.686233 0.000006 0.000001 0.000003 4.945120 2.468211 -0.070488 0.000006 -0.000001 0.000004 -7.092763 -3.775540 -0.201590 -0.000000 0.000000 0.000004 -1.233595 -1.177059 -6.296079 -0.505994 -2.418972 -3.525395 -3.989192 4.403217 -2.095915 0.000005 -0.000004 -0.000001 3.084192 -1.514094 0.119002 -0.000003 0.000004 0.000016 -2.678701 0.941375 0.086073 0.000007 0.000003 0.000015 5.573828 6.627523 13.737750 -1.586457 -1.809855 -1.368679 -0.000000 0.000010 0.000014 6.546227 20.910067 -0.407456 -16.720532 -41.356717 -9.906553 -0.000004 -0.000008 0.000001 0.343712 -0.537597 6.270733 0.394386 4.054737 0.525248 0.000002 0.000002 -0.000002 -3.319029 13.513846 -10.114980 32.526399 -38.334403 30.555042 -0.000012 0.000016 0.000004 13.276536 -13.712189 -7.955337 -33.448321 17.065195 33.226705 -0.000013 0.000008 0.000007 1.454381 -4.828575 -0.780367 0.893700 -2.974331 -0.232698 0.000006 -0.000016 -0.000005 1.124265 -20.443000 -2.535870 -10.092636 53.728023 9.578939 -0.000000 0.000011 0.000005 -1.438219 -2.777657 11.829720 0.413537 0.966396 -0.485444 0.000007 -0.000003 0.000009 
0.000000 1.809483 1.070688 -4.514368 -0.784065 -2.280051 -0.000001 0.000000 -0.000000 2.662004 9.066848 -5.999148 -0.363707 2.796699 2.873248 -6.621339 -7.976015 3.686230 0.000001 0.000000 0.000002 4.945125 2.468210 -0.070489 0.000008 -0.000000 0.000002 -7.092767 -3.775541 -0.201592 0.000003 0.000001 0.000002 -1.219951 -1.329415 -6.235354 -0.515164 -2.456834 -3.581174 -3.989191 4.403218 -2.095914 0.000003 -0.000004 -0.000000 3.084190 -1.514095 0.119005 0.000000 0.000002 0.000015 -2.678697 0.941375 0.086074 0.000007 0.000001 0.000016 0.532279 -0.920477 12.825141 2.037217 2.412903 1.701325 -0.000005 0.000008 0.000012 7.913862 23.131346 -1.695099 -21.038390 -47.268246 -13.538473 -0.000004 -0.000006 0.000005 -0.042888 -7.169565 5.647196 0.892016 9.827577 1.234320 0.000002 0.000002 -0.000001 -3.633477 14.873072 -10.523132 39.893014 -41.743234 37.658268 -0.000012 0.000014 -0.000000 14.832698 -14.414923 -6.385082 -37.736737 17.623495 37.469130 -0.000011 0.000007 0.000006 -0.568214 2.033995 -0.483266 1.828266 -6.135065 -0.434470 0.000006 -0.000020 -0.000010 1.229258 -22.117167 -2.518119 -12.819644 58.994598 12.268062 -0.000001 0.000013 0.000007 1.185621 4.965949 10.976589 -2.405693 -5.576143 2.533935 0.000010 0.000000 0.000008 
0.000000 1.809483 1.070688 -4.496879 -0.784532 -2.280264 0.000002 0.000000 0.000000 2.670002 9.082428 -6.006199 -0.363706 2.796699 2.873251 -6.621339 -7.976015 3.686236 0.000003 0.000002 0.000005 4.945118 2.468211 -0.070488 0.000005 -0.000000 0.000004 -7.092768 -3.775541 -0.201590 0.000000 0.000000 0.000003 -1.218812 -1.350206 -6.226931 -0.516412 -2.461980 -3.588734 -3.989190 4.403218 -2.095913 0.000006 -0.000003 -0.000002 3.084191 -1.514096 0.118999 -0.000004 0.000004 0.000016 -2.678698 0.941374 0.086076 0.000005 0.000002 0.000015 -0.953113 -2.922079 12.444509 2.544816 3.109898 2.187203 -0.000003 0.000007 0.000010 8.508477 25.966771 -1.362592 -20.981955 -47.058740 -13.317304 -0.000008 -0.000006 -0.000000 -0.181495 -7.952264 5.598704 0.779168 8.877542 1.154434 0.000003 0.000002 -0.000002 -4.636902 16.757301 -10.374358 39.264340 -41.353329 36.750444 -0.000009 0.000020 0.000004 16.118070 -15.873510 -6.502995 -36.781556 17.478753 36.368179 -0.000012 0.000007 0.000007 -1.156497 3.958335 -0.331764 1.709136 -5.850091 -0.453895 0.000005 -0.000015 -0.000007 1.403442 -25.089911 -2.762545 -12.841009 56.791093 9.950216 -0.000002 0.000007 0.000006 2.139391 7.316320 10.874194 -2.683912 -6.470051 2.968213 0.000006 -0.000003 0.000011 
0.000000 1.809483 1.070688 -4.614863 -0.781420 -2.278889 0.000002 0.000000 0.000000 2.627892 8.974698 -5.957741 -0.363709 2.796698 2.873255 -6.621348 -7.976014 3.686230 0.000007 0.000002 0.000009 4.945120 2.468210 -0.070490 0.000005 0.000000 0.000005 -7.092762 -3.775539 -0.201594 0.000001 -0.000001 0.000007 -1.244424 -1.211126 -6.279785 -0.508028 -2.427383 -3.537791 -3.989188 4.403218 -2.095917 0.000002 -0.000003 0.000000 3.084193 -1.514095 0.119003 0.000000 0.000003 0.000012 -2.678699 0.941373 0.086080 0.000010 0.000004 0.000011 0.657778 0.117702 13.290020 -2.116592 -2.357620 -1.780760 -0.000000 0.000009 0.000014 8.291016 30.217908 1.848877 -11.094095 -35.351195 -8.653239 -0.000007 -0.000006 -0.000000 -0.171361 -1.513074 6.358159 -0.507325 -4.040259 -0.471896 0.000002 0.000004 -0.000001 -6.976529 19.874029 -8.774844 23.958243 -32.990251 22.913828 -0.000005 0.000012 0.000002 17.121068 -18.583616 -8.181507 -24.480187 14.909832 24.611130 -0.000011 0.000007 0.000007 -0.093671 0.347364 -0.410691 -0.662968 1.681134 -0.004932 0.000005 -0.000019 -0.000007 1.679208 -28.087683 -3.280364 -2.094282 32.366040 5.874282 -0.000002 0.000016 0.000006 1.560671 3.834921 12.434551 1.124137 2.338638 -1.116166 0.000009 -0.000003 0.000006 
